<mxfile host="app.diagrams.net" modified="2023-07-12T07:59:24.628Z" agent="Mozilla/5.0 (Macintosh; Intel Mac OS X 10_15_7) AppleWebKit/537.36 (KHTML, like Gecko) Chrome/114.0.0.0 Safari/537.36" version="21.6.2" etag="QpygAIIndKkXUlsS8RVy" type="github">
  <diagram name="Page-1" id="hNqn0d9M2MqpfBOs5qRX">
    <mxGraphModel>
      <root>
        <mxCell id="0" />
        <mxCell id="1" parent="0" />
      </root>
    </mxGraphModel>
  </diagram>
</mxfile>
